<svg xmlns="http://www.w3.org/2000/svg" viewBox="0 0 160 40" role="img" aria-label="Logo del sistema">
  <defs>
    <linearGradient id="grad" x1="0%" x2="100%" y1="0%" y2="0%">
      <stop offset="0%" stop-color="#2563eb"/>
      <stop offset="100%" stop-color="#22d3ee"/>
    </linearGradient>
  </defs>
  <rect x="2" y="2" width="36" height="36" rx="8" fill="url(#grad)" opacity="0.18" />
  <path d="M16 30c-2-4-3-8-3-12s1-8 3-12l4 2c-1.6 3.3-2.4 6.6-2.4 10s.8 6.7 2.4 10z" fill="#2563eb" />
  <path d="M24 30c2-4 3-8 3-12s-1-8-3-12l-4 2c1.6 3.3 2.4 6.6 2.4 10s-.8 6.7-2.4 10z" fill="#0ea5e9" />
  <text x="54" y="26" font-family="'Inter', Arial, sans-serif" font-size="16" font-weight="700" fill="#0f172a">Prompt Maestro</text>
  <text x="54" y="36" font-family="'Inter', Arial, sans-serif" font-size="10" font-weight="600" fill="#475569">Project Suite</text>
</svg>
